<?xml version="1.0" encoding="utf-8"?>
<!-- Svg Vector Icons : http://www.onlinewebfonts.com/icon -->
<!DOCTYPE svg PUBLIC "-//W3C//DTD SVG 1.1//EN" "http://www.w3.org/Graphics/SVG/1.1/DTD/svg11.dtd">
<svg version="1.1" xmlns="http://www.w3.org/2000/svg" xmlns:xlink="http://www.w3.org/1999/xlink" x="0px" y="0px" viewBox="0 0 256 256" enable-background="new 0 0 256 256" xml:space="preserve">
<metadata> Svg Vector Icons : http://www.onlinewebfonts.com/icon </metadata>
<g><g><g><path fill="#000000" d="M34.6,246c-6.8,0-12.5-2.4-17.4-7.2c-4.8-4.8-7.2-10.6-7.2-17.4V34.6c0-6.7,2.4-12.5,7.2-17.4C22,12.4,27.8,10,34.6,10h186.8c6.7,0,12.5,2.4,17.4,7.2s7.2,10.6,7.2,17.4v186.8c0,6.7-2.4,12.5-7.2,17.4s-10.6,7.2-17.4,7.2H34.6L34.6,246z M98.3,199.5c13.4,0,23.4-3.5,29.9-10.6c6.6-7.1,9.9-17.8,9.9-32.2V77.1h-15.7v8.3c-3-3.3-6.6-6-10.9-7.9c-4.2-1.9-8.6-2.8-13.2-2.8c-7.9,0-14.9,1.9-21,5.7c-6.2,3.8-11,9.1-14.4,15.9c-3.4,6.8-5.1,14.6-5.1,23.3c0,14.3,3.6,25.5,10.7,33.5c7.2,8.1,17.1,12.1,29.8,12.1c4.8,0,9.2-0.9,13.4-2.8c4.1-1.9,7.7-4.6,10.7-8v2.3c0,10-1.9,17.2-5.8,21.8c-3.9,4.6-10,6.9-18.3,6.9c-1.4,0-2.9-0.1-4.3-0.2c-1.4-0.1-3.2-0.5-5.2-1.1c-2-0.6-3.8-1.4-5.4-2.4c-1.6-1-3-2.4-4.3-4.2c-1.3-1.8-2.2-4-2.6-6.5l-0.4-2.3H60.6l0.2,3c0.3,4,1.2,7.6,2.9,10.8s3.7,5.9,6.2,7.9c2.5,2.1,5.3,3.8,8.5,5.2c3.3,1.4,6.5,2.4,9.8,3C91.5,199.2,94.9,199.5,98.3,199.5z M147,167.6h24v-44c0-7.9,1.8-14.1,5.4-18.8c3.6-4.7,8.4-7,14.5-7c2.2,0,4.7,0.3,7.4,0.8l3.3,0.6V75.4l-3.7-0.4c-1.8-0.3-3.8-0.4-6-0.4c-4.1,0-8.1,1-12,3.1c-3.9,2.1-7.2,4.7-10,7.9v-8.7H147L147,167.6L147,167.6z M98.3,150.2c-2.9,0-5.5-0.4-8-1.2c-2.4-0.8-4.5-2-6.2-3.4c-1.7-1.5-3.3-3.2-4.5-5c-1.3-1.9-2.3-3.9-3.1-6.2s-1.3-4.5-1.7-6.8c-0.4-2.3-0.5-4.6-0.5-6.9c0-3,0.3-5.9,0.8-8.7c0.5-2.8,1.4-5.6,2.6-8.3c1.2-2.7,2.7-5.1,4.5-7.2c1.8-2.1,4.1-3.7,6.8-5c2.7-1.3,5.9-1.9,9.3-1.9c3.3,0,6.3,0.6,9,1.9c2.7,1.3,5,2.9,6.7,5c1.8,2.1,3.3,4.5,4.4,7.2c1.2,2.7,2,5.5,2.5,8.3c0.5,2.8,0.7,5.7,0.7,8.7c0,2.9-0.3,5.7-0.9,8.5c-0.6,2.8-1.5,5.5-2.7,8c-1.3,2.5-2.8,4.7-4.6,6.7c-1.8,1.9-4,3.5-6.6,4.6C104.2,149.6,101.4,150.2,98.3,150.2z"/></g></g></g>
</svg>