<svg width="800" height="600" xmlns="http://www.w3.org/2000/svg">

 <g>
  <title>Layer 1</title>
  <g stroke="null" stroke-width="0">
   <path stroke="null" d="m99,-1l0,602l602,0l0,-602l-602,0zm54.72727,54.72727l492.54545,0l0,492.54545l-492.54545,0l0,-492.54545zm232.59091,54.72727c-67.88918,0 -123.13636,61.37664 -123.13636,136.81818s55.24718,136.81818 123.13636,136.81818c38.88373,0 73.19773,-20.52273 95.77273,-51.88145l0,38.19964c0,52.81182 -42.96091,95.77273 -95.77273,95.77273a95.63591,95.63591 0 0 1 -86.14073,-54.72727l-29.47064,0c16.99282,47.66745 62.17018,82.09091 115.61136,82.09091c67.88918,0 123.13636,-55.24718 123.13636,-123.13636l0,-232.59091l-27.36364,0l0,24.51782c-22.575,-31.35873 -56.889,-51.88145 -95.77273,-51.88145zm0,27.36364c52.81182,0 95.77273,49.09036 95.77273,109.45455s-42.96091,109.45455 -95.77273,109.45455s-95.77273,-49.09036 -95.77273,-109.45455s42.96091,-109.45455 95.77273,-109.45455z"/>
  </g>
 </g>
</svg>